<svg xmlns="http://www.w3.org/2000/svg" viewBox="0 0 700.75 648.52"><defs><style>.cls-1{fill:#a7a9ac;}.cls-1,.cls-3{stroke:#fff;}.cls-1,.cls-2,.cls-3,.cls-4{stroke-miterlimit:10;}.cls-1,.cls-2,.cls-3{stroke-width:5px;}.cls-2,.cls-4{fill:#fff;stroke:#231f20;}.cls-3{fill:#bcbec0;}.cls-4{font-size:134.72px;stroke-width:6px;font-family:Bauhaus93, "Bauhaus 93";}</style></defs><title>cloud logo last edit without background - 2</title><g id="Layer_5" data-name="Layer 5"><path class="cls-1" d="M503.74,178.49c-68.57,0-129.48,33.52-167.82,85.39q36.87-4.92,74.42-7.66a160.66,160.66,0,0,1,186.75,0q37.51,2.71,74.41,7.63C633.16,212,572.29,178.49,503.74,178.49Z" transform="translate(-149.62 -175.99)"/><path class="cls-1" d="M503.74,178.49c68.55,0,129.42,33.49,167.76,85.32q-36.87-4.89-74.41-7.63a160.66,160.66,0,0,0-186.75,0q-37.53,2.75-74.42,7.66C374.26,212,435.17,178.49,503.74,178.49Z" transform="translate(-149.62 -175.99)"/><path class="cls-1" d="M671.5,263.81q-36.87-4.89-74.41-7.63a160.66,160.66,0,0,0-186.75,0q-37.53,2.75-74.42,7.66c38.34-51.87,99.25-85.39,167.82-85.39S633.16,212,671.5,263.81Z" transform="translate(-149.62 -175.99)"/><path class="cls-2" d="M444.33,617.91q-11.1,6.87-22.66,13.05l-.18.09A194.14,194.14,0,0,1,249.07,628h0C191.29,597.72,152.12,539,152.12,471.6a170.92,170.92,0,0,1,13.15-65.86c21.91-52.64,69.28-92.92,127.56-106.92a275.6,275.6,0,0,0-7.91,65.69c0,2.46,0,4.9.1,7.33,0,.16,0,.32,0,.48C245,389.91,217.1,428.64,217.1,473.59c0,61.5,52.13,111.34,116.42,111.34a120.68,120.68,0,0,0,47.8-9.78l.32.29A299.72,299.72,0,0,0,444.33,617.91Z" transform="translate(-149.62 -175.99)"/><g id="shadow"><path class="cls-3" d="M555.67,617.91q11.1,6.87,22.66,13.05l.18.09A194.14,194.14,0,0,0,750.93,628h0c57.77-30.26,96.94-88.94,96.94-156.38a170.92,170.92,0,0,0-13.15-65.86c-21.91-52.64-69.28-92.92-127.56-106.92a275.6,275.6,0,0,1,7.91,65.69c0,2.46,0,4.9-.1,7.33,0,.16,0,.32,0,.48,40.08,17.59,67.93,56.32,67.93,101.27,0,61.5-52.13,111.34-116.42,111.34a120.68,120.68,0,0,1-47.8-9.78l-.32.29A299.72,299.72,0,0,1,555.67,617.91Z" transform="translate(-149.62 -175.99)"/><path class="cls-3" d="M373.19,299.34c2.14,22.46,4.32,55.59,10,76.85,23.84,89,77.44,166.24,149.78,221a293.47,293.47,0,0,0,68.13-39C533.06,509.35,480.57,441,452.29,361.61a761.9,761.9,0,0,1,238.27-.67c0-.46,0-.91,0-1.37a280,280,0,0,0-9.88-73.9,761.24,761.24,0,0,0-245.9,9.08C413.29,299.11,394,293.17,373.19,299.34Z" transform="translate(-149.62 -175.99)"/></g><path class="cls-2" d="M634.84,299.34c-2.14,22.46-4.31,55.59-10,76.85-23.85,89-77.44,166.24-149.79,221a293.68,293.68,0,0,1-68.13-39C475,509.35,527.46,441,555.74,361.61a761.84,761.84,0,0,0-238.26-.67c0-.46,0-.91,0-1.37a280,280,0,0,1,9.87-73.9,761.24,761.24,0,0,1,245.9,9.08C594.74,299.11,614.08,293.17,634.84,299.34Z" transform="translate(-149.62 -175.99)"/><text class="cls-4" transform="translate(103.23 611.83)">CLOUD7</text></g></svg>